<svg width="160" height="160" viewBox="0 0 160 160" fill="none" xmlns="http://www.w3.org/2000/svg">
<rect width="160" height="160" fill="#68A9E1"/>
<path d="M37 117L54.28 35.72H88.712C94.0027 35.72 98.6107 36.2747 102.536 37.384C106.547 38.408 109.832 40.1573 112.392 42.632C115.037 45.1067 117 48.3493 118.28 52.36C119.645 56.3707 120.328 61.2773 120.328 67.08C120.328 73.3093 119.517 79.4107 117.896 85.384C116.36 91.3573 113.757 96.6907 110.088 101.384C106.419 106.077 101.597 109.875 95.624 112.776C89.736 115.592 82.44 117 73.736 117H37ZM72.072 108.04C74.888 108.04 77.3627 106.888 79.496 104.584C81.7147 102.195 83.592 99.208 85.128 95.624C86.7493 91.9547 88.072 87.944 89.096 83.592C90.2053 79.1547 91.0587 74.888 91.656 70.792C92.3387 66.696 92.808 63.0267 93.064 59.784C93.4053 56.5413 93.576 54.2373 93.576 52.872C93.576 50.2267 93.0213 48.1787 91.912 46.728C90.888 45.192 89.0533 44.424 86.408 44.424H80.264L66.568 108.04H72.072Z" fill="white"/>
</svg>
